<svg xmlns="http://www.w3.org/2000/svg" xmlns:xlink="http://www.w3.org/1999/xlink" version="1.1" x="0px" y="0px" viewBox="0 0 16 20" style="enable-background:new 0 0 16 16;" xml:space="preserve"><g><circle cx="2" cy="2" r="1"/><path d="M3,4H1C0.45,4,0,4.45,0,5v4c0,0.55,0.45,1,1,1v4.5C1,14.775,1.225,15,1.5,15h1C2.775,15,3,14.775,3,14.5V10   c0.55,0,1-0.45,1-1V5C4,4.45,3.55,4,3,4z"/><circle cx="7" cy="5" r="1"/><path d="M8,7H6C5.45,7,5,7.45,5,8v3c0,0.55,0.45,1,1,1v2.5C6,14.775,6.225,15,6.5,15h1C7.775,15,8,14.775,8,14.5V12   c0.55,0,1-0.45,1-1V8C9,7.45,8.55,7,8,7z"/><circle cx="13" cy="4" r="1"/><path d="M16,9c0-1.657-1.343-3-3-3s-3,1.343-3,3c0,1.305,0.837,2.403,2,2.816V14.5c0,0.275,0.225,0.5,0.5,0.5h1.001   c0.275,0,0.5-0.225,0.5-0.5v-2.684C15.163,11.402,16,10.305,16,9z"/></g><text x="0" y="31" fill="#000000" font-size="5px" font-weight="bold" font-family="'Helvetica Neue', Helvetica, Arial-Unicode, Arial, Sans-serif">Created by Rflor</text><text x="0" y="36" fill="#000000" font-size="5px" font-weight="bold" font-family="'Helvetica Neue', Helvetica, Arial-Unicode, Arial, Sans-serif">from the Noun Project</text></svg>