<svg xmlns="http://www.w3.org/2000/svg" xmlns:xlink="http://www.w3.org/1999/xlink" version="1.1" x="0px" y="0px" viewBox="0 0 100 125" enable-background="new 0 0 100 100" xml:space="preserve"><g><circle cx="46.958" cy="10.284" r="8.91"/></g><path d="M48.92,50.697h-3.354h-8.551V64.09v30.331c0,2.36,1.914,4.274,4.275,4.274s4.275-1.914,4.275-4.274V64.09h3.354v30.331  c0,2.36,1.914,4.274,4.276,4.274c2.36,0,4.274-1.914,4.274-4.274V64.09V50.697H48.92z"/><path d="M68.637,56.485c-0.073-4.632-0.812-12.619-2.169-19.744c-2.123-11.147-4.812-15.902-8.997-15.902H37.016l0,0  c-4.185,0.001-6.873,4.757-8.995,15.902c-1.356,7.122-2.098,15.107-2.17,19.742c-0.052,0.233-0.085,0.475-0.085,0.724  c0,1.829,1.484,3.313,3.313,3.313c1.83,0,3.313-1.484,3.313-3.313c0-0.233-0.025-0.459-0.07-0.679  c0.108-10.206,2.623-22.188,4.693-26.672v19.193h20.455V29.853c2.071,4.481,4.585,16.464,4.695,26.672  c-0.047,0.22-0.072,0.448-0.072,0.682c0,1.829,1.483,3.313,3.313,3.313c1.829,0,3.313-1.484,3.313-3.313  C68.721,56.958,68.688,56.719,68.637,56.485z"/><text x="0" y="115" fill="#000000" font-size="5px" font-weight="bold" font-family="'Helvetica Neue', Helvetica, Arial-Unicode, Arial, Sans-serif">Created by Sergey Krivoy</text><text x="0" y="120" fill="#000000" font-size="5px" font-weight="bold" font-family="'Helvetica Neue', Helvetica, Arial-Unicode, Arial, Sans-serif">from the Noun Project</text></svg>