<?xml version="1.0" encoding="utf-8"?>
<!-- Generator: Adobe Illustrator 19.2.1, SVG Export Plug-In . SVG Version: 6.00 Build 0)  -->
<svg version="1.1" id="Ebene_1" xmlns="http://www.w3.org/2000/svg" xmlns:xlink="http://www.w3.org/1999/xlink" x="0px" y="0px"
	 viewBox="0 0 400 800" style="enable-background:new 0 0 400 800;" xml:space="preserve">
<style type="text/css">
	.st0{fill:#010202;}
</style>
<path class="st0" d="M388.45,598.92c-2.48-1.99-5.05-2.58-8.29-3.33c-2.4-0.55-5.38-1.24-9.3-2.75c-10.82-4.16-19.35-2.68-24.63-0.7
	c-6.59,2.47-15.9,5.36-20.45,5.36c-2.61,0-8.39-0.95-13.48-1.79c-5.57-0.92-10.36-1.7-12.98-1.7c-4.2,0-4.2,0-8.54-4.33
	c-5.16-5.14-15.88-15.86-24.06-23.35c-4.32-3.97-7.16-7.78-9.9-11.45c-2.44-3.27-4.74-6.36-7.91-9.39c-2.6-2.5-5.9-5.14-9.32-7.58
	c-0.29-2.51-1.06-8.06-3.11-17.89c-1.03-4.99-1.92-8.48-2.64-11.38c-1.28-5.09-2.06-8.17-2.42-14.6
	c-0.55-10.29,2.03-22.27,4.1-31.88c1.17-5.43,1.66-12.08,2.13-18.52c0.46-6.24,0.94-12.69,2.02-17.71
	c1.19-5.45,3.29-12.08,5.34-18.47c1.78-5.58,3.62-11.34,4.82-16.28c1.17-4.8,1.28-8.46,1.39-11.68c0.13-3.96,0.22-6.81,2.23-10.51
	c4.3-7.89,11.16-18.04,17.08-25.26c6.62-8.09,18.54-27.83,22.77-37.71c4.18-9.76,12.59-34.93,15.46-44.97
	c1.3-4.53,2.15-8.33,2.89-11.65c0.86-3.84,1.54-6.88,2.6-9.69c0.67-1.79,1.34-2.92,1.92-3.91c1.26-2.16,2.46-4.2,2.46-9.09
	c0-7.83-14.66-31.49-16.74-34.1c-2.67-3.35-24.84-43.91-27.04-51.15c-2.44-8.04-5.36-13.22-11.99-21.32
	c-1.95-2.38-4.3-5.45-6.86-8.77c-5.78-7.51-12.33-16.02-17.73-21.42c-7.5-7.49-28.89-32.31-29.1-32.56
	c-0.67-0.77-1.68-1.21-2.66-1.14c-1.01,0.05-1.95,0.57-2.53,1.4c-0.25,0.35-5.98,8.76-0.2,19.47c2.64,4.91,6.05,10.36,8.67,14.41
	c-1.32,0.2-2.6,0.68-3.64,1.59c-1.34,1.18-2.74,3.45-1.76,7.58c1.35,5.65,5.74,9.42,10.38,13.41c3.41,2.92,6.92,5.94,9.47,9.9
	c4.3,6.69,7.6,7.75,11.15,8.37c1.4,0.24,2.23,0.4,3.42,1.4c3.83,3.28,9.97,18.01,12.89,29c2.93,11.01,13.99,42.56,16.81,50.42
	c0.69,1.92,1.34,3.65,1.95,5.26c2.46,6.46,3.94,10.36,3.44,16.35c-0.38,4.43-3.52,9.78-6.88,15.43c-2.18,3.7-4.44,7.51-6.11,11.41
	c-1.72,4.01-3.41,9.39-5.03,14.6c-1.77,5.63-4.42,14.12-5.84,15.47c-3.41,2.73-18.23,15.41-25.36,22.53c-2.99,3-5.3,6.42-7.15,9.16
	c-0.66,0.97-1.46,2.15-2.13,3.06c-0.55-3.9,0.22-12.61,0.75-18.7c0.27-3.05,0.54-6.14,0.74-9.08c0.16-2.46,0.36-4.79,0.54-7.07
	c0.82-9.97,1.6-19.38-0.57-33.37c-2.54-16.3-6.08-26.77-12.24-36.13c-5.76-8.76-13.08-11.92-22.35-15.92l-1.42-0.61
	c-9.53-4.12-16.73-4.77-24.84-2.21c-7.44,2.35-12.76,6.42-19.63,15.01c-7.04,8.81-12.17,17.78-14.33,32.94
	c-1.11,7.83-1.84,16.6-2.47,24.34c-0.57,6.91-1.06,12.87-1.69,16.68c-0.9,5.42-1.65,14.08-2.07,19.76
	c-6.61-4.51-16.2-11.61-19.07-16.12c-4.75-7.46-11.67-21.31-16.46-32.92c-2.21-5.36-4.91-10.07-7.29-14.24
	c-2.57-4.48-5-8.72-5-10.98c0-3.23,2.96-13.11,5.13-20.32c1.25-4.18,2.42-8.1,3.13-10.92c2.04-8.13,7.64-31.9,9.78-41.9
	c1.71-7.94,6.47-18.69,9.03-24.47l1.23-2.79c0.98-2.3,1.37-2.44,4.41-3.54c1.21-0.43,2.62-0.96,4.35-1.72
	c7.31-3.25,17.4-11.79,16.94-20.6c-0.14-2.76,0.92-3.77,2.84-5.6c1.39-1.32,3.12-2.96,4.2-5.47c1.24-2.89,1.4-5.24,1.53-7.13
	c0.12-1.71,0.2-2.95,1.01-4.47c3.42-6.42,7.49-15.17,7.49-20.34c0-0.76,0.03-1.56,0.07-2.38c0.16-3.74,0.35-7.97-2.36-10.47
	c-0.98-0.91-2.75-1.92-5.6-1.56c-5.32,0.67-10.11,7.54-14.74,14.18c-1.73,2.5-3.37,4.85-4.75,6.42c-2.5,2.85-4.04,5.95-5.67,9.22
	c-1.82,3.65-3.88,7.79-7.75,12.43c-7.28,8.76-23.72,23.17-23.89,23.31c-0.36,0.32-0.65,0.7-0.84,1.14
	c-1.01,2.27-1.65,4.66-2.41,7.43c-1.51,5.55-3.38,12.47-9.3,22.93c-7.25,12.83-14.01,29.93-18.95,42.42
	c-1.31,3.31-2.49,6.3-3.52,8.79c-1.82,4.41-4.12,8.29-6.36,12.04c-3.72,6.25-6.93,11.65-6.42,17.38c0.42,4.58,2.4,8.27,4.5,12.19
	c1.81,3.38,3.69,6.87,4.62,11.19c2,9.35,12.48,46.15,17.73,55.9c1.89,3.5,5.72,9.27,10.15,15.94c7.01,10.55,15.74,23.68,18.23,30.32
	c0.92,2.44,2.15,5.49,3.54,8.9c4.87,11.98,11.53,28.4,12.15,38.22c0.65,10.34,4.3,26.27,7.25,39.06c0.89,3.87,1.69,7.36,2.29,10.18
	l1.27,5.82c2.33,10.51,5.22,23.58,4.66,33.72c-0.71,12.72-1.53,22.59-5.78,33.85c-1.86,4.95-4.12,9.49-6.28,13.9
	c-2.98,6.01-5.78,11.69-7.34,17.79c-2.65,10.4-5.78,23.17,1.17,35.11c-7.9-0.96-18.21-1.07-26.27,2.83
	c-6.5,3.16-10.33,1.81-16.69-0.42c-2.16-0.76-4.48-1.57-7.11-2.27c-2.77-0.73-4.66-1.48-6.1-2.04c-5.13-2-7.12-2.01-13.41,2.56
	c-3.48,2.53-5.49,3.48-7.09,4.25c-1.87,0.88-3.48,1.65-5.39,4.03c-4.01,5.01-4.09,12.23-0.22,18.43c3.64,5.83,9.44,5.59,15.56,5.38
	c1.82-0.07,3.8-0.16,5.95-0.09c7.9,0.23,17.98,2.03,28.68,3.93l3.59,0.64c3.56,0.63,7.57,1.2,11.65,1.78
	c9.39,1.33,19.09,2.7,24.57,4.99c6.73,2.8,21.46,4.59,35.69,6.33c4.35,0.53,8.52,1.04,12.19,1.55c6.08,0.84,12.02,1.13,17.95,1.13
	c6.47,0,12.94-0.35,19.6-0.7c2.62-0.14,5.28-0.28,7.94-0.41c14.93-0.68,26.95-4.53,36.76-11.79c8.48-6.28,9.95-15.47,11.36-26.09
	c1.48,0.72,2.89,1.51,4.49,2.13c7.92,3.1,14.18,5.08,19.22,6.67c5.66,1.8,9.75,3.1,11.6,4.64c0.82,0.68,1.51,1.46,2.21,2.24
	c3.04,3.37,6.82,7.57,18.01,7.57c13.47,0,22.44-0.8,32.04-2.86c9.65-2.07,21.14-3.41,29.3-3.41c9.67,0,19.66,0,23.44-4.72
	C390.05,616.3,394.12,603.48,388.45,598.92z M225.62,327.1c1.79-2.64,3.8-5.64,6.36-8.19c6.96-6.96,21.47-19.37,24.81-22.06
	c2.75-2.2,4.74-8.21,8-18.64c1.58-5.05,3.21-10.27,4.8-13.98c1.51-3.5,3.66-7.13,5.72-10.65c3.74-6.32,7.27-12.3,7.77-18.24
	c0.63-7.48-1.25-12.41-3.84-19.24c-0.6-1.57-1.24-3.25-1.91-5.13c-2.78-7.79-13.76-39.11-16.63-49.89
	c-2.2-8.23-8.74-26.97-14.97-32.31c-2.56-2.19-4.87-2.6-6.56-2.89c-2.11-0.38-3.65-0.64-6.73-5.45c-3.08-4.77-7.14-8.26-10.72-11.34
	c-3.97-3.41-7.4-6.36-8.25-9.93c-0.14-0.62-0.16-0.99-0.21-1.11c0.85-0.21,3.08,0.13,4.8,0.78c1.36,0.5,2.88,0.08,3.75-1.05
	c0.88-1.14,0.94-2.71,0.13-3.9c-0.08-0.11-7.62-11.11-12.36-19.9c-1.68-3.11-1.94-5.88-1.7-8.03c6.54,7.54,19.92,22.84,25.73,28.64
	c5.1,5.11,11.51,13.44,17.16,20.78c2.61,3.38,5.01,6.5,7,8.92c6.07,7.43,8.6,11.89,10.78,19.08c2.44,8,24.97,49.29,28.21,53.35
	c2.98,3.73,15.3,25.06,15.3,29.98c0,3.1-0.52,3.99-1.55,5.76c-0.69,1.18-1.55,2.65-2.4,4.93c-1.23,3.24-1.98,6.63-2.87,10.57
	c-0.72,3.22-1.54,6.89-2.8,11.28c-2.83,9.88-11.09,34.62-15.19,44.19c-3.97,9.28-15.59,28.53-21.81,36.13
	c-6.14,7.5-13.27,18.07-17.76,26.28c-2.76,5.08-2.89,9.14-3.03,13.45c-0.11,3.05-0.2,6.19-1.21,10.34
	c-1.06,4.38-2.63,9.37-4.31,14.61c-3.93-4.13-11.41-12.59-16.05-21.55c-6.48-12.53-12.02-25.71-12.81-33.37
	c-0.52-5.03-1.09-11.81-1.42-15.91c1.71,0.54,3.31,0.76,4.62,0.76c0.94,0,1.71-0.1,2.34-0.2c0.88,0.31,1.71,0.35,2.31,0.27
	C221.08,333.83,222.98,331.01,225.62,327.1z M204.35,348.63c-0.47,6.27,2.06,12.85-2.6,18.41c-4.65,5.57-11.06,12.93-29.54,12.23
	c-18.49-0.69-32.42-11.15-35.21-17.42c-2.79-6.26-1.13-13.04,0.31-19.18c0.91-3.86,1.31-7.57,1.49-10.14
	c5.51-1.37,9.27-5.37,11.35-12.21c1.28-4.22,1.94-7.76,2.3-10.34c1.88,1.44,3.92,2.65,6.1,3.43c4.03,1.42,9.37,2.31,13.95,2.31
	c4.74,0,8.58-0.88,11.4-2.61c2.42-1.48,4.86-3.06,7.22-4.94c-0.24,4.6-0.32,10.4,0.63,13.53c1.21,4.05,3.43,4.78,5.61,5.18
	c1.16,0.21,2.48,0.45,4.78,2.57c0.63,0.58,1.25,0.97,1.88,1.42C204.29,336.35,204.65,344.62,204.35,348.63z M146.79,293.3
	c-3.39-5.65-3.7-12.01-4.24-23.55l-0.16-3.48c-0.67-13.29,1.05-20.14,7.33-29.32c4.47-6.53,7.92-8.43,15.36-8.43
	c0.96,0,1.98,0.03,3.27,0.11c5.49,0,17.64,1.46,20.1,5.95c4.27,7.83,7.45,19.03,8.94,31.55c1.69,14.17,1.62,19.39-2.04,26.7
	c-3.7,7.4-9.17,11.17-14.91,14.68c-1.73,1.05-4.55,1.63-7.96,1.63c-4.64,0-9.1-0.99-11.75-1.93
	C156.22,305.61,151.14,300.54,146.79,293.3z M94.1,363.86c-1.36-3.35-2.58-6.33-3.47-8.73c-2.75-7.35-11.34-20.26-18.91-31.66
	c-4.16-6.26-8.1-12.18-9.84-15.42c-4.57-8.49-14.97-44.3-17.09-54.16c-1.12-5.23-3.31-9.31-5.24-12.92
	c-1.85-3.45-3.45-6.44-3.75-9.68c-0.33-3.6,2.38-8.14,5.51-13.41c2.24-3.77,4.79-8.04,6.79-12.9c1.03-2.52,2.23-5.54,3.55-8.89
	c4.87-12.31,11.53-29.16,18.56-41.6c6.32-11.19,8.4-18.85,9.91-24.45c0.63-2.31,1.13-4.19,1.8-5.84
	c3.06-2.69,17.13-15.24,24.04-23.55c4.35-5.24,6.6-9.74,8.58-13.71c1.5-3.01,2.79-5.61,4.73-7.83c1.61-1.84,3.35-4.35,5.2-6.99
	c2.7-3.89,7.74-11.11,10.41-11.6c0.49,0.72,0.36,3.75,0.29,5.39c-0.04,0.92-0.08,1.82-0.08,2.67c0,2.85-2.57,9.47-6.71,17.26
	c-1.46,2.76-1.62,5.07-1.76,7.11c-0.12,1.67-0.22,3.12-1.01,4.98c-0.54,1.26-1.53,2.2-2.67,3.29c-2.19,2.08-5.19,4.93-4.89,10.71
	c0.24,4.65-6.81,11.47-13.04,14.24c-1.55,0.69-2.83,1.15-3.92,1.54c-3.42,1.24-6.11,2.21-8.23,7.13l-1.19,2.72
	c-2.85,6.41-7.6,17.15-9.45,25.75c-2.13,9.95-7.7,33.6-9.73,41.69c-0.69,2.75-1.83,6.56-3.05,10.63
	c-3.16,10.55-5.41,18.32-5.41,22.22c0,4.02,2.6,8.54,5.88,14.26c2.28,3.98,4.87,8.5,6.92,13.47c4.99,12.11,11.97,26.07,16.99,33.95
	c4.79,7.52,21.29,18.36,25.14,20.82c2.23,3.51,8.21,11.88,14.42,12.6c-1.82,6.74-6.48,23.04-12.04,35.15
	c-6.36,13.87-13.45,22.58-16.43,25.92C102.38,384.29,97.76,372.88,94.1,363.86z M114.79,446.39c8.86-1.03,34.08-3.72,55.57-3.72
	c21.86,0,50.79,3.74,60.36,5.07c-0.38,4.69-0.85,9.28-1.66,13.04c-2.15,10.01-4.82,22.44-4.22,33.62c0.38,7.07,1.26,10.57,2.6,15.86
	c0.7,2.79,1.55,6.16,2.56,10.94l-16.1,2.24c-2.4-1.67-4.86-3.74-7.03-6.28c-1.3-1.52-2.24-3.03-3.14-4.49
	c-2.59-4.18-5.26-8.5-14.59-8.5c-10.6,0-19.51,1.36-31.13,8.1c-5.92,3.43-10.77,7.06-15.57,10.86l-24.69,0.84
	c2.96-9.96,3.85-19.39,4.45-30.27c0.62-11.04-2.38-24.6-4.8-35.51l-1.26-5.76C115.76,450.68,115.29,448.59,114.79,446.39z
	 M240.18,606.09c-1.38,10.38-2.36,17.88-8.91,22.71c-8.71,6.45-19.55,9.89-33.12,10.51c-2.68,0.12-5.35,0.26-8,0.41
	c-12.46,0.67-24.21,1.3-36.29-0.38c-3.7-0.51-7.91-1.03-12.29-1.56c-13.16-1.61-28.06-3.43-33.95-5.89
	c-6.26-2.6-16.39-4.03-26.19-5.42c-4.01-0.57-7.94-1.12-11.43-1.74l-3.58-0.64c-10.93-1.94-21.25-3.78-29.64-4.03
	c-2.31-0.07-4.43,0.01-6.39,0.09c-6.11,0.26-8.23,0.11-9.73-2.28c-2.87-4.6-2-8.61-0.22-10.83c0.96-1.19,1.49-1.45,3.06-2.19
	c1.76-0.83,4.17-1.97,8.14-4.86c4.06-2.95,4.06-2.96,7.13-1.75c1.61,0.63,3.72,1.45,6.8,2.27c2.45,0.65,4.61,1.41,6.63,2.11
	c6.58,2.31,12.79,4.48,21.74,0.14c12.51-6.07,33.32-0.19,33.52-0.14c0.01,0.01,0.03,0,0.05,0.01c9.1,2.88,20.51-0.42,25.11-1.75
	c2.75-0.8,5.92-1.55,9.26-2.33c7.16-1.69,15.28-3.6,21.59-6.62c4.62-2.22,8.23-5.69,11.42-8.76c3.47-3.35,6.48-6.25,9.45-6.25
	c7.32,0,18.18,0.61,27.87,5.88c3.65,1.98,7.42,5.3,11.78,9.14c4.8,4.22,10.11,8.75,16.36,12.67L240.18,606.09z M381.72,616.15
	c-1.79,2.25-12.51,2.25-18.33,2.25c-8.54,0-20.57,1.4-30.63,3.55c-9.11,1.96-17.7,2.71-30.66,2.71c-8.25,0-10.51-2.5-13.11-5.39
	c-0.93-1.02-1.84-2.02-2.89-2.91c-2.85-2.36-7.21-3.74-13.83-5.84c-4.94-1.56-11.09-3.51-18.8-6.53
	c-10.38-4.05-18.2-10.94-25.09-17.01c-4.47-3.94-8.69-7.65-12.99-9.99c-12.28-6.67-26.38-6.67-31.01-6.67
	c-5.62,0-9.89,4.11-14.01,8.08c-2.97,2.87-6.03,5.81-9.7,7.56c-5.67,2.72-13.42,4.54-20.26,6.15c-3.45,0.81-6.75,1.58-9.6,2.41
	c-13.89,4.06-22.85,3.43-26.63-1.92c-7.19-10.14-4.22-21.82-1.59-32.1c0.03-0.13,0.07-0.26,0.1-0.39c1.11,0.25,2.33-0.06,3.16-0.96
	c4.43-4.72,10.59-8.89,17.11-13.31c3.37-2.28,6.86-4.64,10.32-7.21c3.49-2.6,6.63-5.1,9.68-7.54c5.85-4.68,11.38-9.11,18.35-13.16
	c10.34-6.01,18.32-7.21,27.83-7.21c5.66,0,6.63,1.57,8.99,5.38c0.98,1.59,2.09,3.4,3.73,5.32c6.91,8.1,16.07,12.12,19.68,13.47
	c2.92,1.1,7.98,4.03,12.94,7.46c0.07,0.05,0.14,0.11,0.22,0.15c3.57,2.48,7.07,5.22,9.65,7.7c2.77,2.66,4.91,5.54,7.19,8.58
	c2.79,3.74,5.95,7.98,10.73,12.37c8.08,7.4,18.73,18.04,24.28,23.58c5.42,5.42,6.9,5.85,12.78,5.85c2.09,0,7.08,0.82,11.92,1.61
	c5.87,0.96,11.4,1.87,14.55,1.87c6.82,0,19.14-4.43,22.76-5.78c4.2-1.58,11.06-2.73,19.95,0.69c4.35,1.67,7.58,2.42,10.19,3.02
	c2.92,0.68,4.39,1.04,5.63,2.03C385.5,605.38,384.08,613.2,381.72,616.15z M200.38,629.48c-0.59,1.13-1.74,1.79-2.92,1.79
	c-0.51,0-1.03-0.12-1.51-0.37c-0.34-0.17-8.26-4.31-14.12-11.74c-6.38-8.1-3.5-21.58-3.39-22.15c0.4-1.78,2.15-2.89,3.93-2.51
	c1.78,0.4,2.9,2.14,2.52,3.93c-0.67,3.05-1.57,11.98,2.11,16.65c4.99,6.32,11.9,9.93,11.97,9.97
	C200.58,625.87,201.22,627.86,200.38,629.48z M200.53,530.79l-0.33,0.88c-2.36,6.32-2.93,7.83-8.38,8.79
	c-1.16,0.21-2.7,0.48-4.86,1.08c-0.3,0.08-0.59,0.12-0.88,0.12c-1.45,0-2.77-0.96-3.17-2.42c-0.49-1.76,0.54-3.57,2.3-4.05
	c2.42-0.67,4.17-0.97,5.46-1.21c0.69-0.13,1.48-0.26,1.69-0.36c0.18-0.28,0.91-2.21,1.68-4.26l0.34-0.89
	c0.64-1.71,2.56-2.59,4.24-1.92C200.32,527.18,201.18,529.09,200.53,530.79z"/>
</svg>
